# xmcd
#
# Track frame offsets: 
#        150
#        35523
#        70743
#        83692
#        102769
#        167861
#        217650
#
# Disc length: 3359 seconds
#
# Revision: 3
# Processed by: cddbd v1.5.2PL0 Copyright (c) Steve Scherf et al.
# Submitted via: ExactAudioCopy v0.99pb5
#
DISCID=4f0d1d07
DTITLE=Jimi Hendrix - Astro Man - Stockholm First Show Jan 9th '69
DYEAR=2003
DGENRE=Classic Rock
TTITLE0=Killing Floor (17) (live 1_69) w. introduction
TTITLE1=Spanish Castle Magic  (22) (live 1_69)
TTITLE2=Fire  (43) (live 1_69)
TTITLE3=Hey Joe  (42) (live 1_69)
TTITLE4=Voodoo Chile  (38) (live 1_69)
TTITLE5=Red House  (37) (live 1_69)
TTITLE6=Sunshine Of Your Love  (17) (live 1_69)
EXTD=Live In Stockholm - First Show Jan 9th 1969 [CD5]
EXTT0=
EXTT1=
EXTT2=
EXTT3=
EXTT4=
EXTT5=
EXTT6=
PLAYORDER=
